<svg xmlns="http://www.w3.org/2000/svg" width="31" height="31" fill="none"><g fill="#333232" clip-path="url(#a)"><path d="M26 0H5C2 0 0 2 0 5v21c0 3 2 5 5 5h21c3 0 5-2 5-5V5c0-3-2-5-5-5Zm4 26c0 2-2 4-4 4H5c-2 0-4-2-4-4V5c0-2 2-4 4-4h21c2 0 4 2 4 4v21Z"/><path d="M15 5a10 10 0 1 0 0 20 10 10 0 0 0 0-20Zm0 19a9 9 0 1 1 0-18 9 9 0 0 1 0 18Z"/><path d="M15 9a6 6 0 1 0 0 12 6 6 0 0 0 0-12Zm0 11a5 5 0 1 1 0-10 5 5 0 0 1 0 10ZM26 7a2 2 0 1 0-1-3 2 2 0 0 0 1 3Z"/></g><defs><clipPath id="a"><path fill="#fff" d="M0 0h31v31H0z"/></clipPath></defs></svg>