<svg xmlns="http://www.w3.org/2000/svg" width="31" height="31" fill="none"><path fill="#333232" d="m23.71 7.13-12.8 8.03a1.97 1.97 0 0 0-.84 2.18l1.39 4.96a.95.95 0 0 0 1.85-.14l.36-2.72c.05-.36.23-.7.5-.95l10.56-10c.32-.3.36-.8.1-1.15a.83.83 0 0 0-1.12-.21Zm-10.4 10.43a2.89 2.89 0 0 0-.86 1.72l-.18 1.31-1-3.6c-.09-.28.03-.6.29-.76l9.38-5.88-7.62 7.21Z"/><path fill="#333232" d="M30.5 2.34c-.4-.34-.95-.43-1.44-.24L.91 12.9A1.4 1.4 0 0 0 0 14.21c0 .6.37 1.12.93 1.33l6.57 2.44 2.57 8.2a1.42 1.42 0 0 0 2.26.68l3.82-3.1a.53.53 0 0 1 .64-.02l6.9 4.98a1.43 1.43 0 0 0 2.23-.86l5.05-24.16c.1-.51-.08-1.04-.47-1.37Zm-.74 1.12-5.05 24.16a.18.18 0 0 1-.12.14.19.19 0 0 1-.18-.03l-6.9-4.97a1.76 1.76 0 0 0-2.14.06l-3.82 3.1a.19.19 0 0 1-.18.03.19.19 0 0 1-.12-.13l-2.66-8.49a.62.62 0 0 0-.37-.39L1.36 14.4a.18.18 0 0 1-.12-.18c0-.06.02-.14.12-.18L29.5 3.24c.09-.03.15 0 .19.03.03.03.08.1.06.19Z"/><path fill="#333232" d="M25.63 15.02c-.25-.09-.5.16-.55.56l-.07.52c-.05.4.1.8.36.88a.3.3 0 0 0 .1.02c.2 0 .4-.24.45-.58l.07-.52c.05-.4-.1-.8-.36-.88ZM25.45 18.01c-.38-.07-.75.15-.83.5l-1.6 6.72c-.09.34.15.68.53.76l.15.01c.32 0 .6-.2.68-.5l1.6-6.73c.09-.34-.15-.68-.53-.76Z"/></svg>