<svg xmlns="http://www.w3.org/2000/svg" width="31" height="31" fill="none"><path fill="#333232" d="M17.92 0h-5.84A11.16 11.16 0 0 0 1 11.21v5.32c0 4.6 2.8 8.75 7 10.43v3.45a.59.59 0 0 0 .58.59c.15 0 .29-.05.4-.15l3.38-3.1h5.56c6.1 0 11.08-5.03 11.08-11.22v-5.32C29 5.03 24.03 0 17.92 0Zm9.91 16.53a9.99 9.99 0 0 1-9.91 10.04h-5.79a.58.58 0 0 0-.39.15l-2.57 2.36v-2.53a.59.59 0 0 0-.4-.55 10.05 10.05 0 0 1-6.6-9.47v-5.32a9.99 9.99 0 0 1 9.91-10.03h5.84c5.47 0 9.91 4.5 9.91 10.03v5.32Z"/><path fill="#333232" d="m23.73 17.92-3.7-2.32a1.85 1.85 0 0 0-2.5.51l-.17.26c-1.6-.51-3.37-1.17-4.42-4.12l.43-.37a1.7 1.7 0 0 0 .18-2.46l-2.9-3.22a.62.62 0 0 0-.84-.06L7.99 7.67c-1.6 1.34-.85 3.32-.6 3.97a26.65 26.65 0 0 0 4.05 5.2c2.44 2.4 6.86 4.63 7 4.7a3.07 3.07 0 0 0 4.15-.86l1.31-1.95a.57.57 0 0 0-.17-.81Zm-2.15 2.12a1.86 1.86 0 0 1-2.54.49c-.05-.02-4.43-2.23-6.75-4.51A26.04 26.04 0 0 1 8.5 11.2c-.47-1.3-.39-2.09.28-2.65l1.36-1.15 2.5 2.78c.22.25.2.6-.06.82l-.73.62a.57.57 0 0 0-.18.61c1.25 3.96 3.7 4.73 5.49 5.3l.26.08c.26.09.55-.01.7-.23l.42-.64a.61.61 0 0 1 .83-.17l3.2 2-.99 1.47Z"/><path fill="#333232" d="M16.66 10.02a.52.52 0 1 0-.28 1c.77.22 1.38.83 1.6 1.6a.52.52 0 0 0 1-.28c-.31-1.11-1.2-2-2.32-2.32ZM21.4 13c.05 0 .1 0 .16-.02a.6.6 0 0 0 .42-.74c-.71-2.5-2.7-4.5-5.22-5.22a.6.6 0 1 0-.32 1.16 6.4 6.4 0 0 1 4.38 4.38.6.6 0 0 0 .58.44Z"/><path fill="#333232" d="M16.76 4.02a.6.6 0 1 0-.33 1.15 10.8 10.8 0 0 1 7.4 7.4.6.6 0 0 0 1.15-.33 12 12 0 0 0-8.22-8.22Z"/></svg>