<svg xmlns="http://www.w3.org/2000/svg" width="26" height="26" fill="none"><g stroke="#333232" stroke-linecap="round" stroke-linejoin="round" clip-path="url(#a)"><path d="M9.75 25.07c.6 0 1.08-.41 1.08-.93 0-.51-.48-.93-1.08-.93-.6 0-1.08.42-1.08.93 0 .52.48.93 1.08.93ZM21.67 25.07c.6 0 1.08-.41 1.08-.93 0-.51-.49-.93-1.08-.93-.6 0-1.09.42-1.09.93 0 .52.49.93 1.09.93ZM1.08.93h4.34l2.9 14.92c.1.51.37.97.77 1.3.4.33.89.5 1.4.5h10.53c.5 0 1-.17 1.4-.5.4-.33.66-.79.76-1.3l1.74-9.35H6.5"/></g><defs><clipPath id="a"><path fill="#fff" d="M0 0h26v26H0z"/></clipPath></defs></svg>