<svg xmlns="http://www.w3.org/2000/svg" width="26" height="26" fill="none"><path fill="#333232" fill-rule="evenodd" d="M22.88 25.07H3.12a2.14 2.14 0 0 1-2.08-2.2L3.12 9.72c.35-1.9 1.39-2.2 2.54-2.2h1.38C7.82 3.71 10.19.93 13 .93c2.8 0 5.18 2.77 5.96 6.58h1.38c1.15 0 2.19.3 2.54 2.2l2.08 13.17c0 1.2-.93 2.2-2.08 2.2ZM13 2.03c-2.26 0-4.18 2.29-4.9 5.48h9.8c-.72-3.2-2.64-5.48-4.9-5.48Zm8.84 7.68c-.16-.74-.5-1.1-1.23-1.1h-1.47c.06.54.1 1.08.1 1.65 0 .3-.23.55-.52.55a.53.53 0 0 1-.52-.55c0-.57-.04-1.12-.1-1.65H7.9c-.06.53-.1 1.08-.1 1.65 0 .3-.23.55-.52.55a.53.53 0 0 1-.52-.55c0-.57.04-1.11.1-1.65H5.4c-.73 0-1.07.36-1.23 1.1L2.08 22.88c0 .6.47 1.1 1.04 1.1h19.76c.57 0 1.04-.5 1.04-1.1L21.84 9.7Z" clip-rule="evenodd"/></svg>